<mxfile host="65bd71144e">
    <diagram name="Seite-1" id="q25PIQKFB_0P2NkEKlFj">
        <mxGraphModel dx="1401" dy="-542" grid="1" gridSize="10" guides="1" tooltips="1" connect="1" arrows="1" fold="1" page="1" pageScale="1" pageWidth="827" pageHeight="1169" math="0" shadow="0">
            <root>
                <mxCell id="0"/>
                <mxCell id="1" parent="0"/>
                <mxCell id="3puozs7UxtqKZBK5fwl_-8" value="Scheduling Client" style="shape=umlLifeline;perimeter=lifelinePerimeter;container=1;collapsible=0;recursiveResize=0;rounded=0;shadow=0;strokeWidth=1;" parent="1" vertex="1">
                    <mxGeometry x="121" y="1720" width="100" height="160" as="geometry"/>
                </mxCell>
                <mxCell id="3puozs7UxtqKZBK5fwl_-9" value="" style="points=[];perimeter=orthogonalPerimeter;rounded=0;shadow=0;strokeWidth=1;" parent="3puozs7UxtqKZBK5fwl_-8" vertex="1">
                    <mxGeometry x="45" y="70" width="10" height="60" as="geometry"/>
                </mxCell>
                <mxCell id="3puozs7UxtqKZBK5fwl_-10" value="Scheduling Server" style="shape=umlLifeline;perimeter=lifelinePerimeter;container=1;collapsible=0;recursiveResize=0;rounded=0;shadow=0;strokeWidth=1;" parent="1" vertex="1">
                    <mxGeometry x="421" y="1720" width="140" height="160" as="geometry"/>
                </mxCell>
                <mxCell id="3puozs7UxtqKZBK5fwl_-11" value="" style="points=[];perimeter=orthogonalPerimeter;rounded=0;shadow=0;strokeWidth=1;" parent="3puozs7UxtqKZBK5fwl_-10" vertex="1">
                    <mxGeometry x="65" y="80" width="10" height="50" as="geometry"/>
                </mxCell>
                <mxCell id="3puozs7UxtqKZBK5fwl_-12" value="Trigger" style="verticalAlign=bottom;startArrow=oval;endArrow=block;startSize=8;shadow=0;strokeWidth=1;" parent="3puozs7UxtqKZBK5fwl_-10" edge="1">
                    <mxGeometry relative="1" as="geometry">
                        <mxPoint x="135" y="80" as="sourcePoint"/>
                        <mxPoint x="75" y="80" as="targetPoint"/>
                    </mxGeometry>
                </mxCell>
                <mxCell id="3puozs7UxtqKZBK5fwl_-13" value="PostponeÂ Appointment" style="verticalAlign=bottom;endArrow=none;entryX=0;entryY=0;shadow=0;strokeWidth=1;startArrow=classic;startFill=1;endFill=0;" parent="1" source="3puozs7UxtqKZBK5fwl_-9" target="3puozs7UxtqKZBK5fwl_-11" edge="1">
                    <mxGeometry relative="1" as="geometry">
                        <mxPoint x="256" y="1800" as="sourcePoint"/>
                    </mxGeometry>
                </mxCell>
            </root>
        </mxGraphModel>
    </diagram>
</mxfile>